# xmcd
#
# Track frame offsets:
#	150
#	18630
#	36246
#	53991
#	59446
#	79096
#	98384
#	116446
#
# Disc length: 1642 seconds
#
# Revision: 2
# Processed by: cddbd v1.5.1PL0 Copyright (c) Steve Scherf et al.
# Submitted via: audiograbber 1.83.01
#
DISCID=5f066808
DTITLE=Roberto Carlos - Verde e Amarelo
DYEAR=1900
DGENRE=Portugal
TTITLE0=Verde e Amarelo
TTITLE1=De coracao pra coracao
TTITLE2=Só vocé se for
TTITLE3=Paz na terra
TTITLE4=Pelas esquinas da nossa casa
TTITLE5=Simbolo sexual
TTITLE6=A atriz
TTITLE7=Vocé na minha mente
EXTD=
EXTT0=
EXTT1=
EXTT2=
EXTT3=
EXTT4=
EXTT5=
EXTT6=
EXTT7=
PLAYORDER=
